<?xml version="1.0"?>
<svg viewBox="0 0 24 24" xmlns="http://www.w3.org/2000/svg" xmlns:svg="http://www.w3.org/2000/svg">
 <g class="layer">
  <title>Layer 1</title>
  <g fill="none" id="svg_1">
   <path clip-rule="evenodd" d="m7.4,7.84c0.68,0.72 2.05,2.18 2.07,2.22l-0.24,0.31l-2.73,-1.24l-2.51,-0.13a0.58,0.58 0 0 1 -0.43,-0.93l1.85,-2.46a0.57,0.57 0 0 1 0.98,0.1l1.01,2.13zm-1.12,0.64a47,47 0 0 1 -1.67,-0.2a0.2,0.2 0 0 1 -0.14,-0.08a0.25,0.25 0 0 1 0.01,-0.3l0.88,-1.15a0.43,0.43 0 0 1 0.73,0.07l0.56,1.1a0.4,0.4 0 0 1 0,0.35a0.38,0.38 0 0 1 -0.37,0.21zm-1.27,-0.51l0.97,0.11a0.22,0.22 0 0 0 0.21,-0.12a0.23,0.23 0 0 0 0,-0.21l-0.33,-0.63a0.25,0.25 0 0 0 -0.41,-0.04l-0.52,0.67a0.14,0.14 0 0 0 0,0.17c0.02,0.02 0.05,0.04 0.08,0.05" fill="url(#SVGw3MUAb9P)" fill-rule="evenodd" id="svg_2"/>
   <path d="m4.6,14.47c0.09,-0.1 0.35,-0.43 0.53,-0.67a0.19,0.19 0 0 0 -0.14,-0.31l-0.61,-0.05a0.22,0.22 0 0 0 -0.22,0.3l0.25,0.68c0.02,0.05 0.07,0.08 0.12,0.08c0.03,0 0.05,-0.01 0.07,-0.03z" fill="#00a69c" id="svg_3"/>
   <path clip-rule="evenodd" d="m5.61,12.64c0.84,-0.18 3.39,-0.98 3.43,-0.98l0.11,0.33l-3.02,1.9l-1.24,1.8a0.49,0.49 0 0 1 -0.87,-0.1l-0.94,-2.49a0.5,0.5 0 0 1 0.52,-0.68l2.01,0.22zm-0.05,1.12c-0.31,0.42 -0.76,0.97 -0.91,1.15a0.17,0.17 0 0 1 -0.12,0.06a0.21,0.21 0 0 1 -0.21,-0.14l-0.44,-1.18a0.38,0.38 0 0 1 0.38,-0.51l1.06,0.09a0.33,0.33 0 0 1 0.24,0.53z" fill="url(#SVGkdYXVXZH)" fill-rule="evenodd" id="svg_4"/>
   <path d="m18.81,11.84a19,19 0 0 0 -0.67,0.24a0.17,0.17 0 0 0 -0.09,0.22q0.01,0.04 0.05,0.07l0.42,0.3a0.18,0.18 0 0 0 0.29,-0.1l0.12,-0.61a0.1,0.1 0 0 0 -0.05,-0.11a0.08,0.08 0 0 0 -0.07,-0.01" fill="#00a69c" id="svg_5"/>
   <path clip-rule="evenodd" d="m17.28,12.71c-0.68,-0.25 -4.98,-1.19 -5,-1.21l0.06,-0.29l5.11,0.35l1.69,-0.74a0.42,0.42 0 0 1 0.58,0.47l-0.41,2.22a0.42,0.42 0 0 1 -0.68,0.26l-1.35,-1.06zm0.53,-0.79l1.16,-0.42a0.14,0.14 0 0 1 0.11,0.01a0.19,0.19 0 0 1 0.09,0.2l-0.2,1.04a0.32,0.32 0 0 1 -0.35,0.26a0.3,0.3 0 0 1 -0.15,-0.06l-0.73,-0.54a0.28,0.28 0 0 1 0.07,-0.49" fill="url(#SVG1EvE9szh)" fill-rule="evenodd" id="svg_6"/>
   <path clip-rule="evenodd" d="m12.49,8.71a1,1 0 0 0 0.22,-0.39a0.6,0.6 0 0 0 0.01,-0.13l0,-1.57c0,-0.2 0.08,-0.39 0.22,-0.53l0.54,-0.39c0.12,-0.12 0.28,-0.12 0.45,-0.12l1.18,0c0.14,0 0.27,-0.01 0.38,0.09l0.59,0.51a0.72,0.72 0 0 1 0.25,0.54l0,1.45c0,0.1 -0.02,0.21 -0.06,0.29c-0.07,0.17 -0.23,0.28 -0.39,0.38l-0.15,0.1a1.1,1.1 0 0 1 -0.33,0.19a0.8,0.8 0 0 1 -0.29,0.04l-1.09,0a0.7,0.7 0 0 0 -0.36,0.07l-1.81,1.13l-0.35,-0.39l0.99,-1.27zm0.75,-2a0.62,0.62 0 0 1 0.62,-0.62l1.33,0c0.34,0 0.62,0.28 0.62,0.62l0,1.33c0,0.34 -0.28,0.62 -0.62,0.62l-1.33,0a0.62,0.62 0 0 1 -0.62,-0.62l0,-1.33zm2.06,0.66a0.77,0.77 0 1 1 -1.55,0a0.77,0.77 0 0 1 1.54,0" fill="#1259a2" fill-rule="evenodd" id="svg_7"/>
   <path clip-rule="evenodd" d="m8.35,15.28c-0.08,0.15 -0.17,0.3 -0.16,0.47l0,0.03l0.19,1.24c0.02,0.16 -0.02,0.32 -0.12,0.45l-0.28,0.36a0.58,0.58 0 0 1 -0.37,0.21l-1.04,0.16a0.57,0.57 0 0 1 -0.38,-0.08l-0.53,-0.33a0.57,0.57 0 0 1 -0.25,-0.4l-0.17,-1.16a0.58,0.58 0 0 1 0.11,-0.43l0.32,-0.43a0.57,0.57 0 0 1 0.39,-0.23l0.87,-0.1c0.02,0 0.05,0 0.07,-0.01c0.14,-0.04 0.25,-0.14 0.36,-0.25l2.43,-2.51l0.22,0.18l-1.66,2.83zm-0.51,1.7a0.46,0.46 0 0 1 -0.39,0.52l-0.98,0.15a0.46,0.46 0 0 1 -0.52,-0.39l-0.15,-0.99a0.46,0.46 0 0 1 0.39,-0.53l0.98,-0.15a0.46,0.46 0 0 1 0.52,0.39l0.15,0.99l0,0.01zm-1.6,-0.27a0.59,0.59 0 0 1 0.49,-0.67a0.59,0.59 0 0 1 0.56,0.94a0.6,0.6 0 0 1 -0.39,0.23a0.58,0.58 0 0 1 -0.66,-0.5" fill="url(#SVGwKOpKbiX)" fill-rule="evenodd" id="svg_8"/>
   <path clip-rule="evenodd" d="m10.13,7.39a1.29,1.29 0 1 0 -0.77,0.24l0.75,2.01l0.4,-0.06l-0.38,-2.19zm-0.75,-0.27a0.77,0.77 0 1 0 0,-1.55a0.77,0.77 0 0 0 0,1.55m0.51,-0.78a0.51,0.51 0 1 1 -1.02,0a0.51,0.51 0 0 1 1.02,0" fill="url(#SVGIKczmblO)" fill-rule="evenodd" id="svg_9"/>
   <path clip-rule="evenodd" d="m10.25,14.58a1.48,1.62 0 0 0 -0.98,1.55a1.51,1.65 0 0 0 2.07,1.5a1.49,1.63 0 0 0 0.92,-1.5c0,-0.8 -0.52,-1.46 -1.19,-1.61l-0.15,-1.49l-0.42,-0.07l-0.24,1.62zm0.52,0.51c-0.53,0 -0.96,0.46 -0.95,1.04c0,0.58 0.43,1.04 0.95,1.04a0.94,1.03 0 0 0 0.95,-1.04c0,-0.58 -0.43,-1.04 -0.95,-1.04m-0.57,1.03a0.55,0.6 0 1 1 1.09,0a0.55,0.6 0 0 1 -1.09,0" fill="url(#SVGf2cABdLH)" fill-rule="evenodd" id="svg_10" transform="rotate(0.763662, 10.7657, 15.3591)"/>
   <path d="m12.21,4.29a0.5,0.5 0 0 1 -0.5,0.51a0.52,0.52 0 0 1 -0.52,-0.51a0.51,0.51 0 1 1 1.02,0" fill="#2f9ad5" id="svg_11"/>
   <path clip-rule="evenodd" d="m12.1,5.51a1.27,1.27 0 0 0 0.89,-1.22a1.3,1.3 0 0 0 -1.79,-1.19a1.27,1.27 0 0 0 -0.78,1.19c0,0.55 0.35,1.01 0.84,1.2l-0.59,4.32l0.39,0.11l1.05,-4.41l-0.01,0zm-0.39,-0.45a0.77,0.77 0 0 0 0.77,-0.77a0.79,0.79 0 0 0 -0.78,-0.78a0.76,0.76 0 0 0 -0.77,0.78c0,0.42 0.35,0.77 0.78,0.77" fill="url(#SVGF5Tule5j)" fill-rule="evenodd" id="svg_12"/>
   <path d="m19.41,16.37a0.52,0.52 0 0 1 0,-1.04c0.28,0.01 0.51,0.25 0.51,0.53a0.51,0.51 0 0 1 -0.51,0.51" fill="#1082b5" id="svg_13"/>
   <path clip-rule="evenodd" d="m17.87,15.82a1.56,1.56 0 0 0 1.54,1.56a1.52,1.52 0 0 0 1.54,-1.52a1.56,1.56 0 0 0 -1.54,-1.56a1.52,1.52 0 0 0 -1.05,0.4l-6.25,-3.16l-0.24,0.41l6.01,3.69l-0.01,0.19l0,-0.01zm0.51,0.02c0,0.56 0.46,1.03 1.03,1.04a1.02,1.02 0 0 0 1.03,-1.02c0,-0.57 -0.46,-1.04 -1.03,-1.04a1.02,1.02 0 0 0 -1.03,1.02" fill="url(#SVGRx7Fyetg)" fill-rule="evenodd" id="svg_14"/>
   <path d="m14.38,17.28a26,26 0 0 1 -0.52,1.13a1.03,1.03 0 0 0 0.14,1.11l0.94,1.13c0.22,0.25 0.57,0.39 0.91,0.34l1.13,-0.15c0.33,-0.05 0.61,-0.26 0.77,-0.55l0.64,-1.29a1.03,1.03 0 0 0 -0.11,-1.09l-0.87,-1.11a1,1 0 0 0 -0.91,-0.39l-0.91,0.11l-3.93,-4.45l-0.16,0.26l2.88,4.95zm3.2,1.39a1.45,1.45 0 0 1 -1.45,1.46a1.46,1.46 0 0 1 -1.45,-1.46a1.45,1.45 0 0 1 2.01,-1.35a1.46,1.46 0 0 1 0.89,1.35zm-0.72,0a0.73,0.73 0 0 1 -0.73,0.73a0.73,0.73 0 0 1 -0.72,-0.73c0,-0.41 0.32,-0.73 0.72,-0.73a0.73,0.73 0 0 1 0.72,0.73l0.01,0z" fill="url(#SVGyzHEkbLg)" id="svg_15"/>
   <path d="m17.22,10.08c0.06,0.06 0.14,0.13 0.25,0.25c0.15,0.17 0.4,0.23 0.61,0.15l0.82,-0.29a0.6,0.6 0 0 0 0.37,-0.43l0.15,-0.66a0.61,0.61 0 0 0 -0.14,-0.53l-0.56,-0.62a0.58,0.58 0 0 0 -0.61,-0.17l-0.78,0.25a0.61,0.61 0 0 0 -0.4,0.42l-0.13,0.53l-4.72,1.71l0.1,0.14l4.86,-0.93c0.05,0.07 0.11,0.12 0.18,0.18m0.9,-1.67a0.78,0.78 0 0 1 0,1.54a0.79,0.79 0 0 1 -0.77,-0.78c0,-0.42 0.35,-0.77 0.77,-0.76m0.11,0.32a0.43,0.43 0 0 1 -0.14,0.82a0.42,0.42 0 0 1 -0.4,-0.25a0.43,0.43 0 0 1 0.53,-0.57l0.01,0z" fill="url(#SVGJoAFNXpi)" id="svg_16"/>
   <path d="m5.49,11.16l0.67,0.79a0.58,0.58 0 0 0 0.81,0.08l0.72,-0.62l1.5,-0.17l0.05,-0.41l-1.48,-0.27l-0.67,-0.76a0.57,0.57 0 0 0 -0.78,-0.06l-0.74,0.59a0.58,0.58 0 0 0 -0.08,0.83m0.5,-0.07a0.29,0.29 0 0 1 0,-0.41l0.46,-0.46a0.29,0.29 0 0 1 0.41,0l0.46,0.46a0.3,0.3 0 0 1 0,0.41l-0.46,0.46a0.29,0.29 0 0 1 -0.41,0l-0.46,-0.46zm0.27,-0.08a0.18,0.18 0 0 1 0,-0.25l0.27,-0.27a0.17,0.17 0 0 1 0.12,-0.05a0.17,0.17 0 0 1 0.12,0.05l0.28,0.27a0.18,0.18 0 0 1 0,0.25l-0.28,0.27a0.17,0.17 0 0 1 -0.18,0.04a0.2,0.2 0 0 1 -0.06,-0.04l-0.27,-0.27z" fill="#1159a2" id="svg_17"/>
   <path clip-rule="evenodd" d="m10.67,13.29a2.06,2.06 0 1 0 0,-4.12a2.06,2.06 0 0 0 0,4.12m0,-1.03a1.03,1.03 0 1 0 0,-2.06a1.03,1.03 0 0 0 0,2.06" fill="#1259a2" fill-rule="evenodd" id="svg_18" transform="matrix(1, 0, 0, 1, 0, 0)"/>
   <defs>
    <linearGradient id="SVGw3MUAb9P" x1="0.42" x2="3.9" y1="0.99" y2="3.17">
     <stop offset="0.27" stop-color="#00a69c"/>
     <stop offset="1" stop-color="#006771"/>
    </linearGradient>
    <linearGradient id="SVGkdYXVXZH" x1="0.26" x2="3.34" y1="0.06" y2="-0.96">
     <stop offset="0.32" stop-color="#00a69c"/>
     <stop offset="1" stop-color="#186472"/>
    </linearGradient>
    <linearGradient id="SVG1EvE9szh" x1="-0.43" x2="-1.45" y1="-1.2" y2="-1.31">
     <stop stop-color="#00a69c"/>
     <stop offset="1" stop-color="#13626f"/>
    </linearGradient>
    <linearGradient id="SVGwKOpKbiX" x1="2.16" x2="3.04" y1="-0.02" y2="-1.53">
     <stop stop-color="#1159a2"/>
     <stop offset="1" stop-color="#035c72"/>
    </linearGradient>
    <linearGradient id="SVGIKczmblO" x1="0.96" x2="1.88" y1="1.96" y2="4.13">
     <stop stop-color="#1182b5"/>
     <stop offset="1" stop-color="#086b88"/>
    </linearGradient>
    <linearGradient id="SVGf2cABdLH" x1="-0.08" x2="0.05" y1="2.01" y2="-1.78">
     <stop offset="0.66" stop-color="#1081b4"/>
     <stop offset="1" stop-color="#0a5e7b"/>
    </linearGradient>
    <linearGradient id="SVGF5Tule5j" x1="2.41" x2="1.88" y1="0.02" y2="2.55">
     <stop offset="0.53" stop-color="#2f9ad5"/>
     <stop offset="1" stop-color="#125e7d"/>
    </linearGradient>
    <linearGradient id="SVGRx7Fyetg" x1="0.86" x2="-1.73" y1="1.47" y2="-0.04">
     <stop offset="0.49" stop-color="#1082b5"/>
     <stop offset="1" stop-color="#015e6d"/>
    </linearGradient>
    <linearGradient id="SVGyzHEkbLg" x1="-0.15" x2="-0.92" y1="-0.17" y2="-1.22">
     <stop stop-color="#2d99d5"/>
     <stop offset="1" stop-color="#176273"/>
    </linearGradient>
    <linearGradient id="SVGJoAFNXpi" x1="-0.23" x2="-1.48" y1="3.02" y2="3.27">
     <stop stop-color="#2e99d5"/>
     <stop offset="1" stop-color="#136371"/>
    </linearGradient>
   </defs>
  </g>
 </g>
</svg>